Coordinates
version=1
nRows=8
nColumns=36
inDegrees=yes

Units are S.I. units (second, meters, Newtons, ...)
If the header above contains a line with 'inDegrees', this indicates whether rotational values are in degrees (yes) or radians (no).

endheader
time	pelvis_tilt	pelvis_list	pelvis_rotation	pelvis_tx	pelvis_ty	pelvis_tz	hip_flexion_r	hip_adduction_r	hip_rotation_r	knee_angle_r	knee_angle_r_beta	ankle_angle_r	subtalar_angle_r	mtp_angle_r	hip_flexion_l	hip_adduction_l	hip_rotation_l	knee_angle_l	knee_angle_l_beta	ankle_angle_l	subtalar_angle_l	mtp_angle_l	lumbar_extension	lumbar_bending	lumbar_rotation	arm_flex_r	arm_add_r	arm_rot_r	elbow_flex_r	pro_sup_r	arm_flex_l	arm_add_l	arm_rot_l	elbow_flex_l	pro_sup_l
     44.50000000	     -5.15686872	     -7.84637916	      2.79650349	      0.67057573	      1.03781716	      0.88806735	     13.88698075	      9.22447394	     -9.14754193	     15.45901668	      0.26981074	     12.23691851	     -3.82272225	     -7.49999987	     23.75335310	    -10.71843216	      4.21575962	     63.34245661	      1.10553442	     -8.73209780	    -14.22875796	     -7.49999987	     -5.02500131	     10.52791053	      3.79874027	      5.22765861	    -11.62185996	     -3.33265965	     19.48980305	     69.58042295	      2.93916450	     -4.24401287	     -0.34614415	     14.52846874	     68.81691942
     44.51666670	     -4.60523470	     -7.25346255	      2.67621657	      0.67072143	      1.03887464	      0.88902924	     12.29158431	      8.79480904	     -9.42107142	     14.96366208	      0.26116517	     12.41659312	     -2.87596004	     -7.49999987	     24.84228731	    -10.17290681	      4.30048114	     63.98710919	      1.11678573	     -7.54366453	    -15.17426652	     -7.49999987	     -6.32412111	      9.79264221	      4.49851393	      5.99626103	    -11.63817548	     -2.56547405	     20.54475982	     69.70563471	      2.91587312	     -4.43999623	     -0.07255771	     14.98447533	     68.71861096
     44.53333330	     -4.06981778	     -6.56305024	      2.51529804	      0.67039472	      1.03827439	      0.88945634	     10.66059133	      8.26285099	     -9.60933614	     14.33274806	      0.25015364	     12.66198312	     -1.92242941	     -7.49999987	     25.75836247	     -9.50141745	      4.07755365	     63.96301399	      1.11636519	     -6.15019499	    -15.63005542	     -7.49999987	     -7.49312110	      8.99046787	      5.08864230	      6.69059030	    -11.64588595	     -1.92430972	     21.61981016	     69.81627812	      2.79468999	     -4.58247364	     -0.13438920	     15.49670124	     68.50098550
     44.55000000	     -3.53053138	     -5.82154517	      2.26122496	      0.66983117	      1.03875470	      0.88994611	      8.99519007	      7.68912154	     -9.56141502	     13.61305268	      0.23759259	     12.92558717	     -1.20009787	     -7.49999987	     26.37294143	     -8.79728070	      3.56779608	     63.10938246	      1.10146651	     -4.70642151	    -15.69626255	     -7.49999987	     -8.55423248	      8.13728102	      5.62425203	      7.36452019	    -11.66560654	     -1.15823627	     22.54530777	     70.17884773	      2.57851039	     -4.73636488	     -0.22985143	     16.05028958	     68.39265174
     44.56666670	     -3.20526173	     -5.22892458	      1.82722251	      0.66937566	      1.04020726	      0.89072650	      7.55537778	      7.29670470	     -8.96229691	     12.90283646	      0.22519698	     12.91508403	     -1.31135620	     -7.49999987	     26.91640696	     -8.31607751	      2.90430028	     61.44812681	      1.07247213	     -3.34156260	    -15.61545144	     -7.49999987	     -9.23442498	      7.45174843	      6.40885138	      7.89513670	    -11.68935509	     -1.14414941	     23.17035510	     69.73841360	      2.32885217	     -4.78049082	     -0.58464001	     16.58183548	     67.83664319
     44.58333330	     -2.65317031	     -4.56551419	      1.61527282	      0.66902648	      1.04198400	      0.89123990	      5.88712772	      6.70088633	     -8.96232893	     12.35898379	      0.21570496	     13.46219054	     -0.38957257	     -7.49999987	     26.94362501	     -7.72738478	      2.29901655	     58.93812825	      1.02866439	     -1.88262487	    -15.12189612	     -7.49999987	    -10.08380215	      6.71912960	      6.44282977	      8.65967262	    -11.81232014	      0.16646175	     23.73729636	     71.39620212	      1.89613161	     -4.94956139	     -0.83640330	     17.02023534	     68.43281026
     44.60000000	     -2.30677629	     -4.10477748	      1.19283379	      0.66868271	      1.04325616	      0.89192200	      4.49534107	      6.33487340	     -8.33927935	     11.97122259	      0.20893725	     13.50169619	     -0.26247110	     -7.49999987	     26.96611879	     -7.45235701	      1.50815243	     55.82016509	      0.97424567	     -0.41059571	    -14.61548699	     -7.49999987	    -10.66906838	      6.15127748	      7.08334365	      9.11569025	    -11.91127117	      0.08934609	     24.27352375	     71.03906079	      1.59695556	     -4.89994513	     -1.19550305	     17.34752643	     67.99431683
     44.61666670	     -2.07694861	     -3.72412862	      0.94676736	      0.66856657	      1.04427113	      0.89243615	      3.30377743	      5.96356454	     -8.12282850	     11.70727900	      0.20433056	     13.43295636	      0.13643020	     -7.49999987	     26.99541062	     -7.16466187	      0.78930176	     52.15618981	      0.91029724	      1.03053210	    -13.90506652	     -7.49999987	    -11.12146954	      5.65197250	      7.46939644	      9.50669194	    -12.02352346	      0.18095610	     24.91328319	     70.92375883	      1.18169594	     -4.81784111	     -1.35930102	     17.65338634	     67.74794728
